<!DOCTYPE svg PUBLIC "-//W3C//DTD SVG 1.1//EN" "http://www.w3.org/Graphics/SVG/1.1/DTD/svg11.dtd">
<!-- Uploaded to: SVG Repo, www.svgrepo.com, Transformed by: SVG Repo Mixer Tools -->
<svg height="800px" width="800px" version="1.1" id="Layer_1" xmlns="http://www.w3.org/2000/svg" xmlns:xlink="http://www.w3.org/1999/xlink" viewBox="0 0 512 512" xml:space="preserve" fill="#2e8334">
<g id="SVGRepo_bgCarrier" stroke-width="0"/>
<g id="SVGRepo_tracerCarrier" stroke-linecap="round" stroke-linejoin="round"/>
<g id="SVGRepo_iconCarrier"> <path style="fill:#2e8334;" d="M478.242,61.89c-4.642,0-9.064,0.938-13.089,2.633l-113.504,47.789V95.648 C351.648,42.823,308.825,0,256,0s-95.648,42.823-95.648,95.648v16.664L46.847,64.523c-4.025-1.695-8.447-2.633-13.089-2.633 C15.114,61.89,0,77.004,0,95.648h33.758v371.903c0,24.548,19.9,44.448,44.448,44.448s44.448-19.9,44.448-44.448 c0,24.548,19.9,44.448,44.448,44.448s44.448-19.9,44.448-44.448C211.552,492.1,231.452,512,256,512s44.448-19.9,44.448-44.448 c0,24.548,19.9,44.448,44.448,44.448c24.548,0,44.448-19.9,44.448-44.448c0,24.548,19.9,44.448,44.448,44.448 s44.448-19.9,44.448-44.448V95.648H512C512,77.004,496.886,61.89,478.242,61.89z"/> <g> <path style="fill:#ffffff;" d="M230.681,115.341c-4.661,0-8.44-3.779-8.44-8.44V84.396c0-4.661,3.779-8.44,8.44-8.44 c4.661,0,8.44,3.779,8.44,8.44v22.505C239.121,111.562,235.342,115.341,230.681,115.341z"/> <path style="fill:#ffffff;" d="M281.319,115.341c-4.661,0-8.44-3.779-8.44-8.44V84.396c0-4.661,3.779-8.44,8.44-8.44 s8.44,3.779,8.44,8.44v22.505C289.758,111.562,285.98,115.341,281.319,115.341z"/> </g> <g> <circle style="fill:#ffffff;" cx="393.846" cy="383.156" r="8.44"/> <circle style="fill:#ffffff;" cx="427.604" cy="416.914" r="8.44"/> </g> </g>
</svg>