<!DOCTYPE svg PUBLIC "-//W3C//DTD SVG 1.1//EN" "http://www.w3.org/Graphics/SVG/1.1/DTD/svg11.dtd">
<!-- Uploaded to: SVG Repo, www.svgrepo.com, Transformed by: SVG Repo Mixer Tools -->
<svg fill="#2e8334" height="800px" width="800px" version="1.1" id="Layer_1" xmlns="http://www.w3.org/2000/svg" xmlns:xlink="http://www.w3.org/1999/xlink" viewBox="0 0 512.001 512.001" xml:space="preserve">
<g id="SVGRepo_bgCarrier" stroke-width="0"/>
<g id="SVGRepo_tracerCarrier" stroke-linecap="round" stroke-linejoin="round"/>
<g id="SVGRepo_iconCarrier"> <g> <g> <path d="M503.819,192.693L481.355,69.8c-1.462-8.004-8.436-13.819-16.573-13.819h-20.191V16.848 C444.592,7.543,437.048,0,427.744,0H84.258C74.954,0,67.41,7.543,67.41,16.848v39.133H47.22c-8.136,0-15.11,5.815-16.573,13.819 L8.183,192.693c-0.027,0.147-0.033,0.295-0.056,0.444c-0.061,0.387-0.115,0.776-0.147,1.165c-0.021,0.253-0.028,0.505-0.038,0.758 c-0.009,0.222-0.034,0.439-0.034,0.664c0,0.192,0.012,0.381,0.015,0.572c0.001,0.048,0.001,0.098,0.003,0.147 c0.167,14.715,5.422,28.227,14.096,38.853v259.859c0,9.305,7.543,16.848,16.848,16.848h257.015v-33.696V372.924 c0-9.305,7.543-16.848,16.848-16.848h85.021c9.305,0,16.848,7.543,16.848,16.848v105.381v33.696h58.53 c9.305,0,16.848-7.543,16.848-16.848V234.232c7.137-9.134,11.806-20.28,12.981-32.441 C504.066,198.926,504.384,195.781,503.819,192.693z M133.685,89.677h58.802v89.197h-58.802V89.677z M61.268,89.677h38.721v89.197 H44.962L61.268,89.677z M70.587,224.706c-9.703,0-18.308-4.793-23.571-12.136h47.144 C88.896,219.913,80.291,224.706,70.587,224.706z M156.691,425.888h-40.272c-9.305,0-16.848-7.543-16.848-16.848v-40.435 c37.583,0,19.909,0,57.12,0C156.691,405.678,156.691,388.839,156.691,425.888z M156.691,334.909c-37.353,0-19.466,0-57.12,0 v-40.435c0-9.305,7.543-16.848,16.848-16.848h40.272C156.691,314.671,156.691,297.84,156.691,334.909z M163.086,224.706 c-9.703,0-18.308-4.793-23.571-12.136h47.144C181.394,219.913,172.789,224.706,163.086,224.706z M247.833,409.04 c0,9.305-7.543,16.848-16.848,16.848h-40.598c0-37.047,0-20.214,0-57.283c11.281,0,44.356,0,57.446,0V409.04z M247.833,334.909 c-13.085,0-46.168,0-57.446,0c0-37.075,0-20.236,0-57.283h40.598c9.305,0,16.848,7.543,16.848,16.848V334.909z M255.583,224.706 c-9.703,0-18.308-4.793-23.571-12.136h47.144C273.891,219.913,265.286,224.706,255.583,224.706z M284.984,178.874h-58.803V89.677 h58.803V178.874z M348.082,224.706c-9.703,0-18.308-4.793-23.571-12.136h47.144C366.39,219.913,357.785,224.706,348.082,224.706z M377.483,178.874H318.68V89.677h58.803V178.874z M440.58,224.706c-9.703,0-18.308-4.793-23.571-12.136h47.144 C458.888,219.913,450.283,224.706,440.58,224.706z M411.595,178.874V89.677h39.139l16.305,89.197H411.595z"/> </g> </g> <g> <g> <circle cx="381.281" cy="441.237" r="14.602"/> </g> </g> </g>
</svg>