<!DOCTYPE svg PUBLIC "-//W3C//DTD SVG 1.1//EN" "http://www.w3.org/Graphics/SVG/1.1/DTD/svg11.dtd">
<!-- Uploaded to: SVG Repo, www.svgrepo.com, Transformed by: SVG Repo Mixer Tools -->
<svg fill="#2e8334" height="800px" width="800px" version="1.1" id="Capa_1" xmlns="http://www.w3.org/2000/svg" xmlns:xlink="http://www.w3.org/1999/xlink" viewBox="0 0 481.05 481.05" xml:space="preserve">
<g id="SVGRepo_bgCarrier" stroke-width="0"/>
<g id="SVGRepo_tracerCarrier" stroke-linecap="round" stroke-linejoin="round"/>
<g id="SVGRepo_iconCarrier"> <path id="XMLID_263_" d="M396.233,283.761c3.366,0.266,6.623-1.299,8.535-4.104l12.384-18.182l-13.371-13.544l-47.509,0.688 l-1.742,0.014l-0.594-0.202l-75.758-26.493l77.371,13.23l51.707-9.488l3.745-0.689l0.06,0.047l-10.505-10.932 c-2.851-2.959-3.464-7.437-1.503-11.053l3.444-6.346c1.515-2.817,1.515-6.215-0.019-9.033c-1.518-2.805-4.37-4.651-7.563-4.9 l-125.444-9.709v-37.49h157.591c3.07,0,5.941-1.533,7.624-4.102c1.693-2.553,2.004-5.793,0.804-8.613l-10.384-24.521 c-1.581-3.742-4.069-7.03-7.251-9.566l-22.108-17.711c-1.195-0.941-1.832-2.397-1.759-3.9c0.08-1.521,0.884-2.896,2.163-3.709 l31.148-19.827c1.752-1.113,2.569-3.254,1.986-5.261c-0.577-1.988-2.408-3.366-4.493-3.366H269.473v-18.21 C269.473,7.514,261.951,0,252.684,0h-49.422c-9.27,0-16.786,7.514-16.786,16.788v18.21H71.864c-2.862,0-5.462,1.66-6.668,4.259 c-1.208,2.6-0.796,5.652,1.035,7.844l8.293,9.82c2.429,2.897,3.072,6.905,1.651,10.412l-4.421,10.82 c-1.703,4.215-0.423,9.067,3.162,11.871l15.616,12.2c1.892,1.47,2.941,3.788,2.818,6.165c-0.128,2.398-1.391,4.589-3.432,5.856 l-12.292,7.737c-2.782,1.756-4.07,5.122-3.165,8.266c0.91,3.164,3.791,5.326,7.081,5.326h104.932v31.068l-77.106-5.965 c-3.413-0.267-6.778,0.83-9.378,3.068c-2.581,2.24-4.182,5.402-4.434,8.818l-0.704,9.863c-0.251,3.587-2.721,6.639-6.185,7.611 l-36.42,10.305c-3.558,1.002-6.297,3.852-7.142,7.454c-0.845,3.6,0.313,7.374,3.034,9.863l11.978,10.962 c1.633,1.487,2.638,3.568,2.761,5.795l0.858,14.766c0.301,5.091,4.311,9.176,9.384,9.568l113.355,8.768v32.932l-81.335,3.086 c-9.725,0.362-17.851,7.5-19.464,17.1l-2.66,15.832c-0.393,2.254-1.846,4.179-3.916,5.167l-19.435,9.251 c-2.237,1.067-3.738,3.229-3.971,5.701c-0.22,2.475,0.876,4.872,2.882,6.328l3.376,2.444l64.11-12.388l2.727-0.519l0.89,0.238 l70.327,18.46l-69.885-2.176l-41.123,18.182l12.09,11.697c3.475,3.35,8.189,5.15,13.026,4.978l72.36-2.742v63.172 c0,9.268,7.517,16.785,16.786,16.785h49.422c9.268,0,16.789-7.518,16.789-16.785v-66.316l101.598-3.852 c6.577-0.251,12.482-4.122,15.331-10.039l13.04-27.088c1.972-4.092,0.753-9.007-2.896-11.701l-24.135-17.852 c-1.673-1.254-2.912-3.023-3.476-5.043l-4.224-15.065c-2.205-7.907-9.57-13.263-17.777-12.948l-77.462,2.945V273.94L396.233,283.761 z M217.484,73.408c-17.207,0.487-34.403,0.689-51.66,0.095c-17.526-0.563-35.077-1.549-52.678-4.024 c17.368-3.806,34.776-6.138,52.225-8.032c17.429-1.939,34.888-3.07,52.377-3.898l0.753-0.029l0.895,0.139 c19.274,3.146,38.473,6.904,57.533,11.351c19.07,4.432,38.031,9.523,56.697,16.271c-19.857,0.141-39.429-1.365-58.882-3.541 C255.55,79.609,236.462,76.793,217.484,73.408z"/> </g>
</svg>